<svg aria-hidden="true" style="position: absolute; width: 0; height: 0; overflow: hidden;" version="1.1" xmlns="http://www.w3.org/2000/svg" xmlns:xlink="http://www.w3.org/1999/xlink">
<defs>
<symbol id="icon-n-letter" viewBox="0 0 34 32">
<path d="M1.733 17.537l16.779-16.762 1.916 1.918-2.326 4-13.615 13.601-2.754-2.757zM13.347 29.163l3.079-23.142 4.003-3.328-3.078 23.142-4.003 3.328zM13.347 29.163l2.11-3.784 13.831-13.817 2.754 2.757-16.78 16.762-1.916-1.918z"></path>
</symbol>
<symbol id="icon-search-icon" viewBox="0 0 32 32">
<path fill="none" stroke="#fff" style="stroke: var(--color1, #fff)" stroke-linejoin="round" stroke-linecap="round" stroke-miterlimit="4" stroke-width="1.6" d="M14.667 25.333c5.891 0 10.667-4.776 10.667-10.667s-4.776-10.667-10.667-10.667c-5.891 0-10.667 4.776-10.667 10.667s4.776 10.667 10.667 10.667z"></path>
<path fill="none" stroke="#fff" style="stroke: var(--color1, #fff)" stroke-linejoin="round" stroke-linecap="round" stroke-miterlimit="4" stroke-width="1.6" d="M28 28l-5.8-5.8"></path>
</symbol>
</defs>
</svg>
