<svg aria-hidden="true" style="position: absolute; width: 0; height: 0; overflow: hidden;" version="1.1" xmlns="http://www.w3.org/2000/svg" xmlns:xlink="http://www.w3.org/1999/xlink">
<defs>
<symbol id="icon-angle_rose" viewBox="0 0 32 32">
<path d="M0 15.972l15.972-15.972 15.972 15.972-15.972 15.972z"></path>
</symbol>
<symbol id="icon-angle_blue" viewBox="0 0 32 32">
<path d="M0 15.972l15.972-15.972 15.972 15.972-15.972 15.972z"></path>
</symbol>
<symbol id="icon-angle" viewBox="0 0 32 32">
<path stroke-linejoin="miter" stroke-linecap="butt" stroke-miterlimit="10" stroke-width="1.1228" d="M20.067 31.070l11.003-11.003-4.027-15.029-15.030-4.027-11.002 11.002 4.027 15.030 15.029 4.027z"></path>
</symbol>
<symbol id="icon-image2" viewBox="0 0 32 32">
<path d="M26.005 19.086c-1.726 5.507-7.589 8.571-13.096 6.845s-8.571-7.589-6.845-13.096c1.726-5.507 7.589-8.571 13.096-6.845s8.571 7.589 6.845 13.096z"></path>
</symbol>
<symbol id="icon-image" viewBox="0 0 32 32">
<path d="M25.705 19.166c-1.711 5.459-7.523 8.497-12.982 6.786s-8.497-7.523-6.786-12.982c1.711-5.459 7.523-8.497 12.982-6.786s8.497 7.523 6.786 12.982z"></path>
</symbol>
<symbol id="icon-arrow" viewBox="0 0 32 32">
<path fill="#05021d" style="fill: var(--color1, #05021d)" d="M24.289 15.229c0 4.578-3.711 8.289-8.289 8.289s-8.289-3.711-8.289-8.289c0-4.578 3.711-8.289 8.289-8.289s8.289 3.711 8.289 8.289z"></path>
<path fill="#ae53dd" style="fill: var(--color2, #ae53dd)" d="M11.441 15.078c0-0.090 0.073-0.162 0.162-0.162h8.431l-2.374-2.863c-0.023-0.028-0.037-0.064-0.037-0.104 0-0.090 0.073-0.162 0.162-0.162 0.050 0 0.095 0.023 0.125 0.059l0 0s2.617 3.131 2.633 3.164c0.012 0.025 0.017 0.052 0.015 0.079 0 0.003 0 0.007 0 0.011 0 0.040-0.015 0.076-0.039 0.103l0-0-2.597 3.077c-0.030 0.035-0.075 0.058-0.124 0.058-0.090 0-0.162-0.073-0.162-0.162 0-0.040 0.014-0.076 0.038-0.105l-0 0 2.374-2.831h-8.445c-0.090 0-0.162-0.073-0.162-0.162 0-0 0-0 0-0v0z"></path>
</symbol>
<symbol id="icon-play_btn" viewBox="0 0 32 32">
<path fill="#7040f2" style="fill: var(--color3, #7040f2)" d="M32 16c0 8.837-7.163 16-16 16s-16-7.163-16-16c0-8.837 7.163-16 16-16s16 7.163 16 16z"></path>
<path fill="#fff" style="fill: var(--color4, #fff)" d="M22.5 15.134c0.301 0.176 0.5 0.498 0.5 0.866s-0.199 0.69-0.495 0.863l-0.005 0.003-9 5.196c-0.143 0.084-0.316 0.134-0.5 0.134-0.552 0-1-0.448-1-1v0-10.392c0-0.552 0.448-1 1-1 0.184 0 0.357 0.050 0.505 0.137l-0.005-0.003 9 5.196z"></path>
</symbol>
<symbol id="icon-n_letter" viewBox="0 0 34 32">
<path d="M1.733 17.537l16.779-16.762 1.916 1.918-2.326 4-13.615 13.601-2.754-2.757zM13.347 29.163l3.079-23.142 4.003-3.328-3.078 23.142-4.003 3.328zM13.347 29.163l2.11-3.784 13.831-13.817 2.754 2.757-16.78 16.762-1.916-1.918z"></path>
</symbol>
<symbol id="icon-search_icon" viewBox="0 0 32 32">
<path fill="none" stroke="#fff" style="stroke: var(--color4, #fff)" stroke-linejoin="round" stroke-linecap="round" stroke-miterlimit="4" stroke-width="1.6" d="M14.667 25.333c5.891 0 10.667-4.776 10.667-10.667s-4.776-10.667-10.667-10.667c-5.891 0-10.667 4.776-10.667 10.667s4.776 10.667 10.667 10.667z"></path>
<path fill="none" stroke="#fff" style="stroke: var(--color4, #fff)" stroke-linejoin="round" stroke-linecap="round" stroke-miterlimit="4" stroke-width="1.6" d="M28 28l-5.8-5.8"></path>
</symbol>
</defs>
</svg>
