<svg aria-hidden="true" style="position: absolute; width: 0; height: 0; overflow: hidden;" version="1.1" xmlns="http://www.w3.org/2000/svg" xmlns:xlink="http://www.w3.org/1999/xlink">
<defs>
<symbol id="icon-linkedIn" viewBox="0 0 32 32">
<path fill="#12121b" style="fill: var(--color1, #12121b)" d="M4 0h24c2.209 0 4 1.791 4 4v24c0 2.209-1.791 4-4 4h-24c-2.209 0-4-1.791-4-4v-24c0-2.209 1.791-4 4-4z"></path>
<path fill="#fff" style="fill: var(--color2, #fff)" d="M24.883 23.55c-0.465-0.012-1.013-0.019-1.563-0.019s-1.097 0.007-1.643 0.020l0.081-0.002c-0.225 0-0.275-0.050-0.275-0.275v-5.575c0-0.425-0.025-0.85-0.15-1.25-0.375-1.3-1.875-1.775-2.95-0.9-0.575 0.45-0.8 1.075-0.8 1.825v5.25c0 0.225-0.025 0.45 0 0.7 0.025 0.2-0.075 0.25-0.25 0.225h-3.2c-0.2 0-0.25-0.050-0.25-0.25 0.025-1.575 0.025-3.15 0.025-4.75 0-1.95 0-3.9-0.025-5.825 0-0.225 0.050-0.275 0.25-0.275h3.2c0.2 0 0.25 0.050 0.25 0.25v1.275l0.125-0.125c0.975-1.425 2.35-1.825 3.975-1.575 1.875 0.3 3.075 1.6 3.375 3.6 0.075 0.475 0.1 0.95 0.1 1.425v5.975c0 0.2-0.050 0.275-0.275 0.275zM11.883 18v5.25c0 0.225-0.050 0.3-0.275 0.3-1.050-0.025-2.1 0-3.15 0-0.2 0-0.25-0.050-0.25-0.25v-10.6c0-0.175 0.050-0.25 0.25-0.25h3.225c0.225 0 0.25 0.075 0.25 0.275-0.050 1.75-0.050 3.5-0.050 5.275zM12.058 9.55c-0.25 1-1.275 1.575-2.45 1.375-1.25-0.2-1.95-1.425-1.5-2.625 0.3-0.75 1.025-1.2 1.95-1.175 1.4-0.025 2.325 1.1 2 2.425z"></path>
</symbol>
<symbol id="icon-comment" viewBox="0 0 32 32">
<path fill="#fff" style="fill: var(--color2, #fff)" d="M17.906 13.156c-0.72 0-1.28 0.56-1.28 1.25s0.56 1.25 1.28 1.25c0.66 0 1.22-0.56 1.22-1.25 0-0.002 0-0.004 0-0.006 0-0.679-0.543-1.23-1.219-1.244l-0.001-0zM9.156 13.156c-0.72 0-1.28 0.56-1.28 1.25s0.56 1.25 1.28 1.25c0.66 0 1.22-0.56 1.22-1.25 0-0.002 0-0.004 0-0.006 0-0.679-0.543-1.23-1.219-1.244l-0.001-0z"></path>
<path fill="#fff" style="fill: var(--color2, #fff)" d="M27.938 10.78c-1.432-1.954-3.468-3.391-5.831-4.042l-0.075-0.018c-0.542-0.6-1.136-1.134-1.781-1.603l-0.033-0.023c-5.114-3.72-12.296-2.584-16.030 2.53-1.367 1.864-2.187 4.203-2.187 6.734 0 2.641 0.894 5.074 2.395 7.012l-0.020-0.026 0.024 4.144c0.005 0.549 0.45 0.992 1 0.992 0.107 0 0.21-0.017 0.307-0.048l-0.007 0.002 3.956-1.246c0.944 0.347 2.037 0.578 3.174 0.643l0.030 0.001-0.016 0.012c1.767 1.296 3.985 2.075 6.384 2.075 1.214 0 2.382-0.199 3.473-0.567l-0.077 0.022 3.972 1.294c0.093 0.031 0.199 0.049 0.31 0.049 0.552 0 1-0.447 1-0.999v-4.186c1.31-1.767 2.096-3.99 2.096-6.397 0-2.388-0.774-4.595-2.086-6.383l0.021 0.030zM10.094 22.968l-0.376-0.156-3.092 0.97-0.032-3.25-0.25-0.282c-1.305-1.582-2.096-3.631-2.096-5.863 0-2.035 0.657-3.916 1.77-5.443l-0.018 0.026c1.703-2.323 4.422-3.814 7.489-3.814 2.034 0 3.916 0.656 5.444 1.768l-0.027-0.018c4.132 3.004 5.048 8.77 2.062 12.876-1.71 2.325-4.434 3.817-7.508 3.817-1.211 0-2.368-0.232-3.429-0.653l0.063 0.022zM25.874 22.438l-0.248 0.312 0.030 3.25-3.062-1.032-0.376 0.158c-0.893 0.342-1.926 0.54-3.006 0.54-0.832 0-1.636-0.118-2.397-0.337l0.061 0.015-0.008-0.004c2.435-0.761 4.462-2.238 5.892-4.182l0.022-0.032c1.368-1.865 2.189-4.205 2.189-6.738 0-1.517-0.295-2.966-0.83-4.291l0.027 0.077 0.020 0.014c0.72 0.516 1.378 1.16 1.938 1.936 1.015 1.381 1.625 3.116 1.625 4.993 0 2.023-0.708 3.88-1.889 5.337l0.012-0.016z"></path>
<path fill="#fff" style="fill: var(--color2, #fff)" d="M13.532 13.156c-0.722 0-1.282 0.56-1.282 1.25s0.56 1.25 1.28 1.25c0.66 0 1.22-0.56 1.22-1.25 0-0.002 0-0.004 0-0.006 0-0.679-0.543-1.23-1.219-1.244l-0.001-0z"></path>
</symbol>
<symbol id="icon-eth" viewBox="0 0 19 32">
<path fill="#03db80" style="fill: var(--color3, #03db80)" d="M9.333 0v11.829l-8.163 3.912 8.168-3.909v10.269l-9.331-5.805 9.325-16.296zM9.336 0l9.331 16.296-9.333 5.805v-10.269l8.168 3.909-8.168-3.912v-11.829zM9.336 23.963v8.037l-9.336-13.84 9.333 5.803zM9.333 32v-8.040l9.333-5.8-9.331 13.84z"></path>
</symbol>
<symbol id="icon-instagram" viewBox="0 0 32 32">
<path fill="#12121b" style="fill: var(--color1, #12121b)" d="M4 0h24c2.209 0 4 1.791 4 4v24c0 2.209-1.791 4-4 4h-24c-2.209 0-4-1.791-4-4v-24c0-2.209 1.791-4 4-4z"></path>
<path fill="#fff" style="fill: var(--color2, #fff)" d="M15.997 12.665c-1.84 0.005-3.33 1.495-3.334 3.335v0c0.004 1.84 1.494 3.33 3.334 3.335h0c1.84-0.004 3.331-1.495 3.335-3.335v-0c-0.004-1.84-1.495-3.331-3.335-3.335h-0zM26 16c0-1.38 0.012-2.75-0.065-4.128-0.078-1.6-0.443-3.022-1.614-4.193-1.173-1.173-2.591-1.536-4.192-1.613-1.382-0.078-2.751-0.066-4.129-0.066-1.381 0-2.75-0.013-4.128 0.065-1.601 0.077-3.022 0.443-4.193 1.613-1.173 1.174-1.536 2.592-1.613 4.193-0.078 1.382-0.066 2.751-0.066 4.129s-0.013 2.75 0.065 4.128c0.077 1.6 0.443 3.022 1.613 4.193 1.174 1.173 2.592 1.536 4.193 1.613 1.381 0.078 2.75 0.065 4.128 0.065 1.38 0 2.75 0.013 4.128-0.065 1.6-0.077 3.021-0.443 4.192-1.613 1.174-1.174 1.536-2.592 1.614-4.193 0.080-1.379 0.065-2.747 0.065-4.128zM15.998 21.131c-0.002 0-0.005 0-0.007 0-2.83 0-5.124-2.294-5.124-5.124 0-0.002 0-0.005 0-0.007v0c0-0.002 0-0.005 0-0.007 0-2.83 2.294-5.124 5.124-5.124 0.002 0 0.004 0 0.006 0h-0c2.84 0 5.131 2.292 5.131 5.131 0 0.002 0 0.005 0 0.007 0 2.83-2.294 5.124-5.124 5.124-0.002 0-0.004 0-0.006 0h0zM21.339 11.857c-0 0-0.001 0-0.001 0-0.661 0-1.197-0.536-1.197-1.197 0-0 0-0.001 0-0.001v0c0-0.663 0.535-1.198 1.198-1.198 0.001 0 0.003 0 0.004 0 0.661 0 1.197 0.536 1.197 1.197 0 0.332-0.135 0.632-0.353 0.849l-0 0c-0.217 0.216-0.516 0.35-0.846 0.35-0.001 0-0.002 0-0.002 0h0z"></path>
</symbol>
<symbol id="icon-twitter" viewBox="0 0 32 32">
<path fill="#12121b" style="fill: var(--color1, #12121b)" d="M4 0h24c2.209 0 4 1.791 4 4v24c0 2.209-1.791 4-4 4h-24c-2.209 0-4-1.791-4-4v-24c0-2.209 1.791-4 4-4z"></path>
<path fill="#fff" style="fill: var(--color2, #fff)" d="M23.842 12.542v0.5c0 5.175-3.95 11.15-11.15 11.15-2.225 0-4.275-0.65-6.025-1.75 0.3 0.025 0.625 0.050 0.925 0.050 1.846-0 3.544-0.631 4.892-1.688l-0.017 0.013c-1.709-0.025-3.148-1.15-3.642-2.698l-0.008-0.027c0.25 0.050 0.475 0.075 0.75 0.075 0.35 0 0.7-0.050 1.025-0.15-1.807-0.36-3.15-1.933-3.15-3.82 0-0.002 0-0.004 0-0.005v0-0.050c0.525 0.3 1.125 0.475 1.775 0.5-1.050-0.7-1.75-1.9-1.75-3.275 0-0.725 0.2-1.4 0.525-1.975 1.942 2.374 4.811 3.926 8.047 4.099l0.028 0.001c-0.064-0.252-0.101-0.541-0.101-0.839 0-0.021 0-0.043 0.001-0.064l-0 0.003c0-0.003 0-0.006 0-0.009 0-2.163 1.753-3.916 3.916-3.916 0.003 0 0.006 0 0.009 0h-0c1.125 0 2.15 0.475 2.85 1.225 0.9-0.175 1.725-0.5 2.5-0.95-0.312 0.922-0.919 1.676-1.708 2.165l-0.017 0.010c0.8-0.1 1.55-0.3 2.25-0.625-0.5 0.8-1.15 1.5-1.925 2.050z"></path>
</symbol>
<symbol id="icon-facebook" viewBox="0 0 32 32">
<path fill="#12121b" style="fill: var(--color1, #12121b)" d="M4 0h24c2.209 0 4 1.791 4 4v24c0 2.209-1.791 4-4 4h-24c-2.209 0-4-1.791-4-4v-24c0-2.209 1.791-4 4-4z"></path>
<path fill="#fff" style="fill: var(--color2, #fff)" d="M17.068 26.666v-9.73h3.267l0.489-3.793h-3.756v-2.421c0-1.098 0.305-1.847 1.88-1.847h2.008v-3.393c-0.347-0.047-1.54-0.15-2.926-0.15-2.896 0-4.878 1.768-4.878 5.013v2.797h-3.275v3.792h3.275v9.732h3.916z"></path>
</symbol>
</defs>
</svg>
