<svg aria-hidden="true" style="position: absolute; width: 0; height: 0; overflow: hidden;" version="1.1" xmlns="http://www.w3.org/2000/svg" xmlns:xlink="http://www.w3.org/1999/xlink">
<defs>
<symbol id="icon-restart" viewBox="0 0 41 32">
<path fill="#1e1b33" style="fill: var(--color1, #1e1b33)" opacity="0.72" d="M4.267 0h32c2.356 0 4.267 1.91 4.267 4.267v23.467c0 2.356-1.91 4.267-4.267 4.267h-32c-2.356 0-4.267-1.91-4.267-4.267v-23.467c0-2.356 1.91-4.267 4.267-4.267z"></path>
<path fill="#fff" style="fill: var(--color2, #fff)" d="M24.485 11.781c-0.906-0.909-2.082-1.502-3.352-1.691s-2.567 0.037-3.699 0.643c-1.132 0.606-2.038 1.561-2.585 2.723s-0.704 2.469-0.45 3.727c0.255 1.258 0.908 2.401 1.863 3.259s2.161 1.385 3.44 1.504c1.279 0.119 2.561-0.178 3.658-0.845s1.949-1.671 2.431-2.861h-1.658c-0.462 0.815-1.167 1.465-2.017 1.859s-1.802 0.51-2.722 0.335-1.762-0.636-2.407-1.315c-0.645-0.679-1.061-1.543-1.19-2.471s0.037-1.873 0.473-2.702c0.436-0.829 1.122-1.5 1.959-1.919s1.786-0.565 2.711-0.418c0.925 0.148 1.78 0.581 2.446 1.24l-2.374 2.404h5.227v-5.227l-1.755 1.755z"></path>
</symbol>
<symbol id="icon-like32" viewBox="0 0 62 32">
<path fill="#1e1b33" style="fill: var(--color1, #1e1b33)" opacity="0.72" d="M4.267 0h53.333c2.356 0 4.267 1.91 4.267 4.267v23.467c0 2.356-1.91 4.267-4.267 4.267h-53.333c-2.356 0-4.267-1.91-4.267-4.267v-23.467c0-2.356 1.91-4.267 4.267-4.267z"></path>
<path fill="#fff" style="fill: var(--color2, #fff)" d="M36.135 21.483c-0.697 0-1.329-0.124-1.897-0.373-0.557-0.259-1.030-0.632-1.419-1.12l1.165-1.165c0.209 0.319 0.503 0.572 0.881 0.762s0.791 0.284 1.239 0.284c0.428 0 0.796-0.080 1.105-0.239s0.548-0.383 0.717-0.672c0.179-0.289 0.269-0.622 0.269-1.001 0-0.398-0.090-0.737-0.269-1.015-0.169-0.279-0.418-0.493-0.747-0.642-0.319-0.159-0.707-0.239-1.165-0.239-0.179 0-0.363 0.015-0.553 0.045-0.189 0.020-0.358 0.055-0.508 0.105l0.762-0.986c0.209-0.080 0.428-0.144 0.657-0.194 0.239-0.060 0.468-0.090 0.687-0.090 0.538 0 1.020 0.129 1.449 0.388 0.438 0.259 0.782 0.622 1.030 1.090 0.259 0.458 0.388 1.001 0.388 1.628 0 0.677-0.159 1.274-0.478 1.792s-0.762 0.921-1.329 1.21-1.229 0.433-1.986 0.433zM34.955 16.211v-1.015l2.793-3.255 2.061-0.045-2.912 3.345-1.941 0.971zM33.343 12.418v-1.538h6.466v1.015l-1.478 0.523h-4.988zM40.944 20.318l3.853-4.092c0.319-0.338 0.577-0.642 0.777-0.911s0.343-0.523 0.433-0.762 0.134-0.483 0.134-0.732c0-0.468-0.154-0.831-0.463-1.090-0.299-0.269-0.682-0.403-1.15-0.403-0.498 0-0.936 0.124-1.314 0.373s-0.717 0.637-1.015 1.165l-1.195-0.986c0.408-0.707 0.911-1.239 1.508-1.598 0.597-0.368 1.289-0.553 2.076-0.553 0.647 0 1.215 0.129 1.702 0.388s0.866 0.622 1.135 1.090c0.269 0.458 0.403 0.991 0.403 1.598 0 0.438-0.055 0.831-0.164 1.18-0.1 0.338-0.274 0.682-0.523 1.030-0.249 0.338-0.592 0.737-1.030 1.195l-2.957 3.061-2.21 0.045zM40.944 21.333v-1.015l1.478-0.523h5.615v1.538h-7.093z"></path>
<path fill="#fff" style="fill: var(--color2, #fff)" d="M26.534 11.003c-1.624-1.624-4.266-1.624-5.89 0l-0.377 0.377-0.377-0.377c-1.624-1.624-4.266-1.624-5.89 0-1.591 1.591-1.601 4.112-0.024 5.865 1.438 1.598 5.681 5.052 5.861 5.198 0.122 0.099 0.269 0.148 0.415 0.148 0.005 0 0.010 0 0.014-0 0.151 0.007 0.304-0.045 0.43-0.147 0.18-0.146 4.423-3.599 5.862-5.198 1.577-1.753 1.567-4.274-0.024-5.865zM25.577 15.986c-1.122 1.246-4.204 3.816-5.311 4.727-1.107-0.912-4.189-3.481-5.31-4.727-1.1-1.223-1.111-2.964-0.024-4.051 0.555-0.555 1.284-0.832 2.012-0.832s1.457 0.277 2.012 0.832l0.829 0.829c0.099 0.099 0.223 0.158 0.354 0.178 0.212 0.046 0.442-0.014 0.607-0.178l0.829-0.829c1.11-1.11 2.916-1.109 4.025 0 1.087 1.086 1.076 2.828-0.024 4.051z"></path>
</symbol>
<symbol id="icon-arrow_down" viewBox="0 0 64 32">
<path fill="#fff" style="fill: var(--color2, #fff)" d="M0 0l32 32 32-32z"></path>
</symbol>
<symbol id="icon-like24" viewBox="0 0 60 32">
<path fill="#fff" style="fill: var(--color2, #fff)" d="M32.738 23.196l6.42-6.82c0.533-0.564 0.964-1.070 1.296-1.518 0.331-0.448 0.572-0.871 0.72-1.269 0.142-0.362 0.225-0.781 0.226-1.219v-0c0-0.78-0.258-1.387-0.772-1.817-0.498-0.448-1.138-0.672-1.918-0.672-0.023-0.001-0.050-0.001-0.078-0.001-0.785 0-1.516 0.232-2.127 0.632l0.015-0.009c-0.629 0.414-1.195 1.061-1.692 1.941l-1.991-1.643c0.681-1.179 1.52-2.066 2.516-2.663 0.996-0.613 2.148-0.921 3.458-0.921 1.079 0 2.027 0.215 2.839 0.647s1.442 1.036 1.892 1.817c0.448 0.764 0.672 1.652 0.672 2.663 0 0.729-0.092 1.387-0.274 1.966-0.208 0.656-0.505 1.226-0.882 1.733l0.011-0.015c-0.416 0.564-0.988 1.227-1.717 1.991l-4.93 5.102-3.684 0.075zM32.738 24.889v-1.692l2.464-0.871h9.358v2.564h-11.822zM46.203 18.667l6.197-11.2h3.236l-6.347 11.2h-3.086zM46.203 20.409v-1.742l1.22-0.821h12.295v2.564h-13.515zM54.466 24.889v-11.399h2.812v11.399h-2.812z"></path>
<path fill="#fff" style="fill: var(--color2, #fff)" d="M22.889 7.673c-1.257-1.253-2.992-2.028-4.908-2.028s-3.65 0.775-4.908 2.029l-0.629 0.627-0.628-0.628c-1.257-1.254-2.992-2.030-4.908-2.030s-3.651 0.776-4.909 2.030l0-0c-2.651 2.649-2.667 6.853-0.039 9.774 2.396 2.665 9.467 8.42 9.767 8.663 0.187 0.154 0.429 0.247 0.692 0.247 0 0 0.001 0 0.001 0h0.023c0.011 0 0.023 0.001 0.036 0.001 0.26 0 0.498-0.094 0.682-0.249l-0.002 0.001c0.299-0.244 7.371-5.998 9.769-8.663 2.628-2.921 2.61-7.124-0.041-9.774zM21.296 15.977c-1.87 2.076-7.008 6.359-8.853 7.879-1.844-1.518-6.98-5.801-8.85-7.877-1.831-2.041-1.849-4.942-0.037-6.752 0.856-0.857 2.039-1.387 3.345-1.387 0.003 0 0.006 0 0.010 0h-0c1.214 0 2.428 0.462 3.353 1.387l1.383 1.381c0.164 0.165 0.372 0.263 0.588 0.297 0.070 0.016 0.151 0.025 0.233 0.025 0.304 0 0.579-0.123 0.778-0.322l1.381-1.381c0.859-0.857 2.045-1.387 3.355-1.387s2.495 0.53 3.355 1.387l-0-0c1.812 1.81 1.794 4.713-0.039 6.75z"></path>
</symbol>
<symbol id="icon-green_not" viewBox="0 0 32 32">
<path fill="#03db80" style="fill: var(--color3, #03db80)" d="M23.067 7.112c-1.307 0.002-2.365 1.061-2.365 2.368 0 0.001 0 0.002 0 0.003v-0 1.893h7.691v7.232h-7.808v3.080c0 0.003 0 0.007 0 0.011 0 5.686-4.607 10.297-10.293 10.301h-0c-5.685-0.006-10.291-4.616-10.291-10.301 0-0.004 0-0.008 0-0.011v0.001c0-0.002 0-0.005 0-0.008 0-5.686 4.607-10.297 10.293-10.301h3.312v-1.896c0-0.003 0-0.007 0-0.011 0-5.228 4.235-9.466 9.461-9.472h8.934v7.112h-8.933zM13.608 11.437v7.171h6.979v-7.173h-6.981zM7.101 21.688c0-1.765 1.429-3.2 3.192-3.2h3.195v3.2c0.003 0.048 0.004 0.104 0.004 0.16 0 1.766-1.431 3.197-3.197 3.197s-3.197-1.431-3.197-3.197c0-0.056 0.001-0.112 0.004-0.168l-0 0.008z"></path>
</symbol>
<symbol id="icon-check" viewBox="0 0 32 32">
<path fill="#f4c558" style="fill: var(--color4, #f4c558)" d="M32 16c0 8.837-7.163 16-16 16s-16-7.163-16-16c0-8.837 7.163-16 16-16s16 7.163 16 16z"></path>
<path fill="#1e1b33" style="fill: var(--color1, #1e1b33)" d="M21.939 9.941c0.272-0.278 0.651-0.45 1.071-0.45 0.828 0 1.499 0.671 1.499 1.499 0 0.409-0.164 0.779-0.429 1.050l0-0-7.979 9.981c-0.275 0.295-0.666 0.479-1.099 0.479-0.414 0-0.789-0.168-1.061-0.439l-5.296-5.293c-0.271-0.271-0.439-0.646-0.439-1.060 0-0.828 0.671-1.499 1.499-1.499 0.414 0 0.789 0.168 1.060 0.439l4.187 4.187 6.947-8.851c0.013-0.017 0.026-0.031 0.040-0.045l-0 0z"></path>
</symbol>
</defs>
</svg>
